<svg xmlns="http://www.w3.org/2000/svg" xmlns:xlink="http://www.w3.org/1999/xlink" fill="none" viewBox="0 0 336 201" width="336" height="201"><defs><path fill="#111" d="M234.86 209.04 451.4-7.5l67.17 67.17-216.53 216.54z"/></defs><g clip-path="url(#a)"><path fill="var(--accent,#F4D04E)" d="M0 .5h336v200H0z"/><rect width="139" height="95" x="88" y="77.73" fill="#fff" rx="47.5" transform="rotate(-45 88 77.73)"/><rect width="139" height="95" x="54.05" y="77.73" fill="#111" rx="47.5" transform="rotate(-45 54.05 77.73)"/><use xlink:href="#b"/><rect width="139" height="95" x="20.11" y="77.73" fill="#fff" rx="47.5" transform="rotate(-45 20.11 77.73)"/><rect width="204.19" height="270.55" fill="#111" rx="102.09" transform="matrix(-.7 .7 .7 .7 20.13 77.72)"/><path stroke="#fff" stroke-width="3" d="m6.69-357.5 135.58 135.73a32 32 0 0 1 0 45.23L-45.54 11.47a32 32 0 0 0 0 45.23l152.63 152.8"/><path stroke="#111" stroke-width="3" d="M69.97 71.72v23.33H93.3m42.78-42.78V28.94h-23.34m-9.9 9.9V85.5m107.53-123 60.88 60.87a32 32 0 0 1 0 45.26l-77.75 77.74a32 32 0 0 0 0 45.26l69.87 69.87"/><path stroke="#111" stroke-width="3" d="m253.34 149.57-12.15 12.15 14.26 14.26v12.67h12.67l13.73 13.73L294 190.23m-15.31-66-12.15 12.14 14.26 14.26v12.67h12.67l13.73 13.73 12.14-12.14m-15.3-66-12.15 12.14 14.25 14.25v12.68h12.68l13.73 13.73 12.14-12.15m-15.31-66-12.15 12.14 14.26 14.26v12.67h12.67l13.73 13.73 12.14-12.14"/><mask id="c" width="285" height="285" x="234" y="-8" maskUnits="userSpaceOnUse" style="mask-type:alpha"><use xlink:href="#b"/></mask><g stroke="#fff" mask="url(#c)"><path stroke-width="3" d="m253.34 149.57-12.15 12.15 14.26 14.26v12.67h12.67l13.73 13.73L294 190.23m-15.31-66-12.15 12.14 14.26 14.26v12.67h12.67l13.73 13.73 12.14-12.14m-15.3-66-12.15 12.14 14.25 14.25v12.68h12.68l13.73 13.73 12.14-12.15m-15.31-66-12.15 12.14 14.26 14.26v12.67h12.67l13.73 13.73 12.14-12.14"/></g></g><defs><clipPath id="a"><path fill="#fff" d="M0 .5h336v200H0z"/></clipPath></defs></svg>